<svg xmlns="http://www.w3.org/2000/svg" xmlns:xlink="http://www.w3.org/1999/xlink" width="1062" height="634.75"><rect width="1062" height="634.75" rx="5" ry="5" class="a"/><svg y="0%" x="0%"><circle cx="20" cy="20" r="6" fill="#ff5f58"/><circle cx="40" cy="20" r="6" fill="#ffbd2e"/><circle cx="60" cy="20" r="6" fill="#18c132"/></svg><svg height="542.75" viewBox="0 0 99 54.275" width="990" x="31" xmlns="http://www.w3.org/2000/svg" xmlns:xlink="http://www.w3.org/1999/xlink" y="66"><style>@keyframes j{0%{transform:translateX(0)}1.8%{transform:translateX(-99px)}3.5%{transform:translateX(-198px)}5.3%{transform:translateX(-297px)}7%{transform:translateX(-396px)}7.3%{transform:translateX(-495px)}9.1%{transform:translateX(-594px)}10.9%{transform:translateX(-693px)}12.6%{transform:translateX(-792px)}14.4%{transform:translateX(-891px)}15.4%{transform:translateX(-990px)}17.2%{transform:translateX(-1089px)}18.9%{transform:translateX(-1188px)}20.7%{transform:translateX(-1287px)}22.5%{transform:translateX(-1386px)}24.2%{transform:translateX(-1485px)}26%{transform:translateX(-1584px)}27.8%{transform:translateX(-1683px)}29.5%{transform:translateX(-1782px)}31.3%{transform:translateX(-1881px)}33%{transform:translateX(-1980px)}34.8%{transform:translateX(-2079px)}36.6%{transform:translateX(-2178px)}38.3%{transform:translateX(-2277px)}40.1%{transform:translateX(-2376px)}41.9%{transform:translateX(-2475px)}43.6%{transform:translateX(-2574px)}45.4%{transform:translateX(-2673px)}47.2%{transform:translateX(-2772px)}48.9%{transform:translateX(-2871px)}50.7%{transform:translateX(-2970px)}52.5%{transform:translateX(-3069px)}54.2%{transform:translateX(-3168px)}56%{transform:translateX(-3267px)}57.7%{transform:translateX(-3366px)}59.5%{transform:translateX(-3465px)}61.3%{transform:translateX(-3564px)}63%{transform:translateX(-3663px)}64.8%{transform:translateX(-3762px)}66.6%{transform:translateX(-3861px)}68.3%{transform:translateX(-3960px)}70.1%{transform:translateX(-4059px)}71.9%{transform:translateX(-4158px)}73.6%{transform:translateX(-4257px)}75.4%{transform:translateX(-4356px)}77.1%{transform:translateX(-4455px)}78.9%{transform:translateX(-4554px)}80.7%{transform:translateX(-4653px)}82.4%{transform:translateX(-4752px)}84.2%{transform:translateX(-4851px)}86%{transform:translateX(-4950px)}87.7%{transform:translateX(-5049px)}89.5%{transform:translateX(-5148px)}91.3%{transform:translateX(-5247px)}93%{transform:translateX(-5346px)}94.8%{transform:translateX(-5445px)}96.5%{transform:translateX(-5544px)}98.2%{transform:translateX(-5643px)}to{transform:translateX(-5742px)}}.a{fill:#282d35}.f{fill:#b9c0cb;white-space:pre}.g{fill:#fff}.h{fill:#b9c0cb;font-weight:700;white-space:pre}</style><g font-family="Monaco,Consolas,Menlo,'Bitstream Vera Sans Mono','Powerline Symbols',monospace" font-size="1.67"><defs><symbol id="1"><text y="1.67" class="f">[F]ind</text><text x="7.014" y="1.67" class="f">[A]dd</text><text x="13.026" y="1.67" class="f">[D]elete</text><text x="22.044" y="1.67" class="f">[E]xport</text><text x="31.062" y="1.67" class="f">QR</text><text x="34.068" y="1.67" class="f">[Q]uit</text></symbol><symbol id="2"><path class="g" d="M0 0h57v2.171H0z"/><text y="1.67" class="h">Demo 014359</text></symbol><symbol id="3"><text x="1.002" y="1.67" class="f">Demo2</text><text x="50.1" y="1.67" class="f">362665</text></symbol><symbol id="4"><text x="1.002" y="1.67" class="f">Demo</text><text x="50.1" y="1.67" class="f">014359</text></symbol><symbol id="5"><path class="g" d="M0 0h57v2.171H0z"/><text y="1.67" class="h">Demo2 362665</text></symbol><symbol id="6"><path class="g" d="M0 0h57v2.171H0z"/><text y="1.67" class="h">Demo2 362665</text><text x="58.116" y="1.67" class="f">copied</text></symbol><symbol id="7"><text x="1.002" y="1.67" class="f">Demo</text><text x="50.1" y="1.67" class="f">855534</text></symbol><symbol id="8"><path class="g" d="M0 0h57v2.171H0z"/><text y="1.67" class="h">Demo2 561813</text></symbol><symbol id="9"><path class="g" d="M0 0h57v2.171H0z"/><text y="1.67" class="h">Demo2 561813</text><text x="58.116" y="1.67" class="f">copied</text></symbol><symbol id="a"><path fill="transparent" d="M0 0h99v26H0z"/></symbol></defs><path class="a" d="M0 0h99v54.275H0z"/><g style="animation-duration:14.24211600000001s;animation-iteration-count:infinite;animation-name:j;animation-timing-function:steps(1,end)"><svg width="5841"><svg><use xlink:href="#a"/><use xlink:href="#1"/><text y="6.012" class="f">|█████████████████▎</text><text x="31.062" y="6.012" class="f">|</text><text x="33.066" y="6.012" class="f">13s</text><use xlink:href="#2" y="8.684"/><use xlink:href="#3" y="10.855"/></svg><svg x="99"><use xlink:href="#a"/><use xlink:href="#1"/><text y="6.012" class="f">|█████████████████▌</text><text x="31.062" y="6.012" class="f">|</text><text x="33.066" y="6.012" class="f">13s</text><use xlink:href="#2" y="8.684"/><use xlink:href="#3" y="10.855"/></svg><svg x="198"><use xlink:href="#a"/><use xlink:href="#1"/><text y="6.012" class="f">|█████████████████▊</text><text x="31.062" y="6.012" class="f">|</text><text x="33.066" y="6.012" class="f">13s</text><use xlink:href="#2" y="8.684"/><use xlink:href="#3" y="10.855"/></svg><svg x="297"><use xlink:href="#a"/><use xlink:href="#1"/><text y="6.012" class="f">|██████████████████</text><text x="31.062" y="6.012" class="f">|</text><text x="33.066" y="6.012" class="f">12s</text><use xlink:href="#2" y="8.684"/><use xlink:href="#3" y="10.855"/></svg><svg x="396"><use xlink:href="#a"/><use xlink:href="#1"/><text y="6.012" class="f">|██████████████████▎</text><text x="31.062" y="6.012" class="f">|</text><text x="33.066" y="6.012" class="f">12s</text><use xlink:href="#2" y="8.684"/><use xlink:href="#3" y="10.855"/></svg><svg x="495"><use xlink:href="#a"/><use xlink:href="#1"/><text y="6.012" class="f">|██████████████████▍</text><text x="31.062" y="6.012" class="f">|</text><text x="33.066" y="6.012" class="f">12s</text><use xlink:href="#4" y="8.684"/><use xlink:href="#5" y="10.855"/></svg><svg x="594"><use xlink:href="#a"/><use xlink:href="#1"/><text y="6.012" class="f">|██████████████████▋</text><text x="31.062" y="6.012" class="f">|</text><text x="33.066" y="6.012" class="f">12s</text><use xlink:href="#4" y="8.684"/><use xlink:href="#5" y="10.855"/></svg><svg x="693"><use xlink:href="#a"/><use xlink:href="#1"/><text y="6.012" class="f">|██████████████████▉</text><text x="31.062" y="6.012" class="f">|</text><text x="33.066" y="6.012" class="f">12s</text><use xlink:href="#4" y="8.684"/><use xlink:href="#5" y="10.855"/></svg><svg x="792"><use xlink:href="#a"/><use xlink:href="#1"/><text y="6.012" class="f">|███████████████████▏</text><text x="31.062" y="6.012" class="f">|</text><text x="33.066" y="6.012" class="f">11s</text><use xlink:href="#4" y="8.684"/><use xlink:href="#5" y="10.855"/></svg><svg x="891"><use xlink:href="#a"/><use xlink:href="#1"/><text y="6.012" class="f">|███████████████████▍</text><text x="31.062" y="6.012" class="f">|</text><text x="33.066" y="6.012" class="f">11s</text><use xlink:href="#4" y="8.684"/><use xlink:href="#5" y="10.855"/></svg><svg x="990"><use xlink:href="#a"/><use xlink:href="#1"/><text y="6.012" class="f">|███████████████████▌</text><text x="31.062" y="6.012" class="f">|</text><text x="33.066" y="6.012" class="f">11s</text><use xlink:href="#4" y="8.684"/><use xlink:href="#6" y="10.855"/></svg><svg x="1089"><use xlink:href="#a"/><use xlink:href="#1"/><text y="6.012" class="f">|███████████████████▊</text><text x="31.062" y="6.012" class="f">|</text><text x="33.066" y="6.012" class="f">11s</text><use xlink:href="#4" y="8.684"/><use xlink:href="#6" y="10.855"/></svg><svg x="1188"><use xlink:href="#a"/><use xlink:href="#1"/><text y="6.012" class="f">|████████████████████</text><text x="31.062" y="6.012" class="f">|</text><text x="33.066" y="6.012" class="f">10s</text><use xlink:href="#4" y="8.684"/><use xlink:href="#6" y="10.855"/></svg><svg x="1287"><use xlink:href="#a"/><use xlink:href="#1"/><text y="6.012" class="f">|████████████████████▎</text><text x="31.062" y="6.012" class="f">|</text><text x="33.066" y="6.012" class="f">10s</text><use xlink:href="#4" y="8.684"/><use xlink:href="#6" y="10.855"/></svg><svg x="1386"><use xlink:href="#a"/><use xlink:href="#1"/><text y="6.012" class="f">|████████████████████▌</text><text x="31.062" y="6.012" class="f">|</text><text x="33.066" y="6.012" class="f">10s</text><use xlink:href="#4" y="8.684"/><use xlink:href="#6" y="10.855"/></svg><svg x="1485"><use xlink:href="#a"/><use xlink:href="#1"/><text y="6.012" class="f">|████████████████████▊</text><text x="31.062" y="6.012" class="f">|</text><text x="33.066" y="6.012" class="f">10s</text><use xlink:href="#4" y="8.684"/><use xlink:href="#6" y="10.855"/></svg><svg x="1584"><use xlink:href="#a"/><use xlink:href="#1"/><text y="6.012" class="f">|█████████████████████</text><text x="31.062" y="6.012" class="f">|</text><text x="34.068" y="6.012" class="f">9s</text><use xlink:href="#4" y="8.684"/><use xlink:href="#6" y="10.855"/></svg><svg x="1683"><use xlink:href="#a"/><use xlink:href="#1"/><text y="6.012" class="f">|█████████████████████▎</text><text x="31.062" y="6.012" class="f">|</text><text x="34.068" y="6.012" class="f">9s</text><use xlink:href="#4" y="8.684"/><use xlink:href="#6" y="10.855"/></svg><svg x="1782"><use xlink:href="#a"/><use xlink:href="#1"/><text y="6.012" class="f">|█████████████████████▌</text><text x="31.062" y="6.012" class="f">|</text><text x="34.068" y="6.012" class="f">9s</text><use xlink:href="#4" y="8.684"/><use xlink:href="#5" y="10.855"/></svg><svg x="1881"><use xlink:href="#a"/><use xlink:href="#1"/><text y="6.012" class="f">|█████████████████████▊</text><text x="31.062" y="6.012" class="f">|</text><text x="34.068" y="6.012" class="f">9s</text><use xlink:href="#4" y="8.684"/><use xlink:href="#5" y="10.855"/></svg><svg x="1980"><use xlink:href="#a"/><use xlink:href="#1"/><text y="6.012" class="f">|██████████████████████</text><text x="31.062" y="6.012" class="f">|</text><text x="34.068" y="6.012" class="f">8s</text><use xlink:href="#4" y="8.684"/><use xlink:href="#5" y="10.855"/></svg><svg x="2079"><use xlink:href="#a"/><use xlink:href="#1"/><text y="6.012" class="f">|██████████████████████▎</text><text x="31.062" y="6.012" class="f">|</text><text x="34.068" y="6.012" class="f">8s</text><use xlink:href="#4" y="8.684"/><use xlink:href="#5" y="10.855"/></svg><svg x="2178"><use xlink:href="#a"/><use xlink:href="#1"/><text y="6.012" class="f">|██████████████████████▌</text><text x="31.062" y="6.012" class="f">|</text><text x="34.068" y="6.012" class="f">8s</text><use xlink:href="#4" y="8.684"/><use xlink:href="#5" y="10.855"/></svg><svg x="2277"><use xlink:href="#a"/><use xlink:href="#1"/><text y="6.012" class="f">|██████████████████████▊</text><text x="31.062" y="6.012" class="f">|</text><text x="34.068" y="6.012" class="f">8s</text><use xlink:href="#4" y="8.684"/><use xlink:href="#5" y="10.855"/></svg><svg x="2376"><use xlink:href="#a"/><use xlink:href="#1"/><text y="6.012" class="f">|███████████████████████</text><text x="31.062" y="6.012" class="f">|</text><text x="34.068" y="6.012" class="f">7s</text><use xlink:href="#4" y="8.684"/><use xlink:href="#5" y="10.855"/></svg><svg x="2475"><use xlink:href="#a"/><use xlink:href="#1"/><text y="6.012" class="f">|███████████████████████▎</text><text x="31.062" y="6.012" class="f">|</text><text x="34.068" y="6.012" class="f">7s</text><use xlink:href="#4" y="8.684"/><use xlink:href="#5" y="10.855"/></svg><svg x="2574"><use xlink:href="#a"/><use xlink:href="#1"/><text y="6.012" class="f">|███████████████████████▌</text><text x="31.062" y="6.012" class="f">|</text><text x="34.068" y="6.012" class="f">7s</text><use xlink:href="#4" y="8.684"/><use xlink:href="#5" y="10.855"/></svg><svg x="2673"><use xlink:href="#a"/><use xlink:href="#1"/><text y="6.012" class="f">|███████████████████████▊</text><text x="31.062" y="6.012" class="f">|</text><text x="34.068" y="6.012" class="f">7s</text><use xlink:href="#4" y="8.684"/><use xlink:href="#5" y="10.855"/></svg><svg x="2772"><use xlink:href="#a"/><use xlink:href="#1"/><text y="6.012" class="f">|████████████████████████</text><text x="31.062" y="6.012" class="f">|</text><text x="34.068" y="6.012" class="f">6s</text><use xlink:href="#4" y="8.684"/><use xlink:href="#5" y="10.855"/></svg><svg x="2871"><use xlink:href="#a"/><use xlink:href="#1"/><text y="6.012" class="f">|████████████████████████▎</text><text x="31.062" y="6.012" class="f">|</text><text x="34.068" y="6.012" class="f">6s</text><use xlink:href="#4" y="8.684"/><use xlink:href="#5" y="10.855"/></svg><svg x="2970"><use xlink:href="#a"/><use xlink:href="#1"/><text y="6.012" class="f">|████████████████████████▌</text><text x="31.062" y="6.012" class="f">|</text><text x="34.068" y="6.012" class="f">6s</text><use xlink:href="#4" y="8.684"/><use xlink:href="#5" y="10.855"/></svg><svg x="3069"><use xlink:href="#a"/><use xlink:href="#1"/><text y="6.012" class="f">|████████████████████████▊</text><text x="31.062" y="6.012" class="f">|</text><text x="34.068" y="6.012" class="f">6s</text><use xlink:href="#4" y="8.684"/><use xlink:href="#5" y="10.855"/></svg><svg x="3168"><use xlink:href="#a"/><use xlink:href="#1"/><text y="6.012" class="f">|█████████████████████████</text><text x="31.062" y="6.012" class="f">|</text><text x="34.068" y="6.012" class="f">5s</text><use xlink:href="#4" y="8.684"/><use xlink:href="#5" y="10.855"/></svg><svg x="3267"><use xlink:href="#a"/><use xlink:href="#1"/><text y="6.012" class="f">|█████████████████████████▎</text><text x="31.062" y="6.012" class="f">|</text><text x="34.068" y="6.012" class="f">5s</text><use xlink:href="#4" y="8.684"/><use xlink:href="#5" y="10.855"/></svg><svg x="3366"><use xlink:href="#a"/><use xlink:href="#1"/><text y="6.012" class="f">|█████████████████████████▌</text><text x="31.062" y="6.012" class="f">|</text><text x="34.068" y="6.012" class="f">5s</text><use xlink:href="#4" y="8.684"/><use xlink:href="#5" y="10.855"/></svg><svg x="3465"><use xlink:href="#a"/><use xlink:href="#1"/><text y="6.012" class="f">|█████████████████████████▊</text><text x="31.062" y="6.012" class="f">|</text><text x="34.068" y="6.012" class="f">5s</text><use xlink:href="#4" y="8.684"/><use xlink:href="#5" y="10.855"/></svg><svg x="3564"><use xlink:href="#a"/><use xlink:href="#1"/><text y="6.012" class="f">|██████████████████████████</text><text x="31.062" y="6.012" class="f">|</text><text x="34.068" y="6.012" class="f">4s</text><use xlink:href="#4" y="8.684"/><use xlink:href="#5" y="10.855"/></svg><svg x="3663"><use xlink:href="#a"/><use xlink:href="#1"/><text y="6.012" class="f">|██████████████████████████▎</text><text x="31.062" y="6.012" class="f">|</text><text x="34.068" y="6.012" class="f">4s</text><use xlink:href="#4" y="8.684"/><use xlink:href="#5" y="10.855"/></svg><svg x="3762"><use xlink:href="#a"/><use xlink:href="#1"/><text y="6.012" class="f">|██████████████████████████▌</text><text x="31.062" y="6.012" class="f">|</text><text x="34.068" y="6.012" class="f">4s</text><use xlink:href="#4" y="8.684"/><use xlink:href="#5" y="10.855"/></svg><svg x="3861"><use xlink:href="#a"/><use xlink:href="#1"/><text y="6.012" class="f">|██████████████████████████▊</text><text x="31.062" y="6.012" class="f">|</text><text x="34.068" y="6.012" class="f">4s</text><use xlink:href="#4" y="8.684"/><use xlink:href="#5" y="10.855"/></svg><svg x="3960"><use xlink:href="#a"/><use xlink:href="#1"/><text y="6.012" class="f">|███████████████████████████</text><text x="31.062" y="6.012" class="f">|</text><text x="34.068" y="6.012" class="f">3s</text><use xlink:href="#4" y="8.684"/><use xlink:href="#5" y="10.855"/></svg><svg x="4059"><use xlink:href="#a"/><use xlink:href="#1"/><text y="6.012" class="f">|███████████████████████████▎</text><text x="31.062" y="6.012" class="f">|</text><text x="34.068" y="6.012" class="f">3s</text><use xlink:href="#4" y="8.684"/><use xlink:href="#5" y="10.855"/></svg><svg x="4158"><use xlink:href="#a"/><use xlink:href="#1"/><text y="6.012" class="f">|███████████████████████████▌</text><text x="31.062" y="6.012" class="f">|</text><text x="34.068" y="6.012" class="f">3s</text><use xlink:href="#4" y="8.684"/><use xlink:href="#5" y="10.855"/></svg><svg x="4257"><use xlink:href="#a"/><use xlink:href="#1"/><text y="6.012" class="f">|███████████████████████████▊</text><text x="31.062" y="6.012" class="f">|</text><text x="34.068" y="6.012" class="f">3s</text><use xlink:href="#4" y="8.684"/><use xlink:href="#5" y="10.855"/></svg><svg x="4356"><use xlink:href="#a"/><use xlink:href="#1"/><text y="6.012" class="f">|████████████████████████████</text><text x="31.062" y="6.012" class="f">|</text><text x="34.068" y="6.012" class="f">2s</text><use xlink:href="#4" y="8.684"/><use xlink:href="#5" y="10.855"/></svg><svg x="4455"><use xlink:href="#a"/><use xlink:href="#1"/><text y="6.012" class="f">|████████████████████████████▎</text><text x="31.062" y="6.012" class="f">|</text><text x="34.068" y="6.012" class="f">2s</text><use xlink:href="#4" y="8.684"/><use xlink:href="#5" y="10.855"/></svg><svg x="4554"><use xlink:href="#a"/><use xlink:href="#1"/><text y="6.012" class="f">|████████████████████████████▌</text><text x="31.062" y="6.012" class="f">|</text><text x="34.068" y="6.012" class="f">2s</text><use xlink:href="#4" y="8.684"/><use xlink:href="#5" y="10.855"/></svg><svg x="4653"><use xlink:href="#a"/><use xlink:href="#1"/><text y="6.012" class="f">|████████████████████████████▊</text><text x="31.062" y="6.012" class="f">|</text><text x="34.068" y="6.012" class="f">2s</text><use xlink:href="#4" y="8.684"/><use xlink:href="#5" y="10.855"/></svg><svg x="4752"><use xlink:href="#a"/><use xlink:href="#1"/><text y="6.012" class="f">|█████████████████████████████</text><text x="31.062" y="6.012" class="f">|</text><text x="34.068" y="6.012" class="f">1s</text><use xlink:href="#4" y="8.684"/><use xlink:href="#5" y="10.855"/></svg><svg x="4851"><use xlink:href="#a"/><use xlink:href="#1"/><text y="6.012" class="f">|█████████████████████████████▎|</text><text x="34.068" y="6.012" class="f">1s</text><use xlink:href="#4" y="8.684"/><use xlink:href="#5" y="10.855"/></svg><svg x="4950"><use xlink:href="#a"/><use xlink:href="#1"/><text y="6.012" class="f">|█████████████████████████████▌|</text><text x="34.068" y="6.012" class="f">1s</text><use xlink:href="#4" y="8.684"/><use xlink:href="#5" y="10.855"/></svg><svg x="5049"><use xlink:href="#a"/><use xlink:href="#1"/><text y="6.012" class="f">|█████████████████████████████▊|</text><text x="34.068" y="6.012" class="f">1s</text><use xlink:href="#4" y="8.684"/><use xlink:href="#5" y="10.855"/></svg><svg x="5148"><use xlink:href="#a"/><use xlink:href="#1"/><text y="6.012" class="f">|</text><text x="31.062" y="6.012" class="f">|</text><text x="33.066" y="6.012" class="f">30s</text><use xlink:href="#7" y="8.684"/><use xlink:href="#8" y="10.855"/></svg><svg x="5247"><use xlink:href="#a"/><use xlink:href="#1"/><text y="6.012" class="f">|▎</text><text x="31.062" y="6.012" class="f">|</text><text x="33.066" y="6.012" class="f">30s</text><use xlink:href="#7" y="8.684"/><use xlink:href="#8" y="10.855"/></svg><svg x="5346"><use xlink:href="#a"/><use xlink:href="#1"/><text y="6.012" class="f">|▌</text><text x="31.062" y="6.012" class="f">|</text><text x="33.066" y="6.012" class="f">30s</text><use xlink:href="#7" y="8.684"/><use xlink:href="#8" y="10.855"/></svg><svg x="5445"><use xlink:href="#a"/><use xlink:href="#1"/><text y="6.012" class="f">|▊</text><text x="31.062" y="6.012" class="f">|</text><text x="33.066" y="6.012" class="f">30s</text><use xlink:href="#7" y="8.684"/><use xlink:href="#8" y="10.855"/></svg><svg x="5544"><use xlink:href="#a"/><use xlink:href="#1"/><text y="6.012" class="f">|█</text><text x="31.062" y="6.012" class="f">|</text><text x="33.066" y="6.012" class="f">29s</text><use xlink:href="#7" y="8.684"/><use xlink:href="#9" y="10.855"/></svg><svg x="5643"><use xlink:href="#a"/><use xlink:href="#1"/><text y="6.012" class="f">|█▎</text><text x="31.062" y="6.012" class="f">|</text><text x="33.066" y="6.012" class="f">29s</text><use xlink:href="#7" y="8.684"/><use xlink:href="#9" y="10.855"/></svg><svg x="5742"><use xlink:href="#a"/><use xlink:href="#1"/><text y="6.012" class="f">|█▌</text><text x="31.062" y="6.012" class="f">|</text><text x="33.066" y="6.012" class="f">29s</text><use xlink:href="#7" y="8.684"/><use xlink:href="#9" y="10.855"/></svg></svg></g></g></svg></svg>