<svg xmlns="http://www.w3.org/2000/svg" xmlns:xlink="http://www.w3.org/1999/xlink" width="990" height="738.14"><rect width="990" height="738.14" rx="0" ry="0" class="a"/><svg height="738.14" viewBox="0 0 99 73.814" width="990" xmlns="http://www.w3.org/2000/svg" xmlns:xlink="http://www.w3.org/1999/xlink"><style>@keyframes h{0%{transform:translateX(0)}.18%{transform:translateX(-198px)}3.43%{transform:translateX(-297px)}3.58%{transform:translateX(-396px)}4.19%{transform:translateX(-495px)}4.62%{transform:translateX(-594px)}4.72%{transform:translateX(-693px)}4.88%{transform:translateX(-792px)}6.18%{transform:translateX(-891px)}6.46%{transform:translateX(-990px)}6.6%{transform:translateX(-1089px)}6.81%{transform:translateX(-1188px)}7.02%{transform:translateX(-1287px)}7.56%{transform:translateX(-1386px)}7.77%{transform:translateX(-1485px)}7.89%{transform:translateX(-1584px)}9.05%{transform:translateX(-1683px)}10.56%{transform:translateX(-1782px)}10.67%{transform:translateX(-1881px)}10.87%{transform:translateX(-1980px)}10.97%{transform:translateX(-2079px)}11.17%{transform:translateX(-2178px)}11.42%{transform:translateX(-2277px)}11.56%{transform:translateX(-2376px)}11.66%{transform:translateX(-2475px)}11.77%{transform:translateX(-2574px)}12.26%{transform:translateX(-2673px)}92.18%{transform:translateX(-2772px)}92.45%{transform:translateX(-2871px)}92.71%{transform:translateX(-2970px)}92.97%{transform:translateX(-3069px)}93.24%{transform:translateX(-3168px)}93.5%{transform:translateX(-3267px)}93.77%{transform:translateX(-3366px)}94.03%{transform:translateX(-3465px)}94.29%{transform:translateX(-3564px)}94.56%{transform:translateX(-3663px)}94.82%{transform:translateX(-3762px)}95.09%{transform:translateX(-3861px)}95.35%{transform:translateX(-3960px)}95.62%{transform:translateX(-4059px)}95.88%{transform:translateX(-4158px)}96.14%{transform:translateX(-4257px)}96.41%{transform:translateX(-4356px)}96.67%{transform:translateX(-4455px)}96.94%{transform:translateX(-4554px)}97.2%{transform:translateX(-4653px)}97.47%{transform:translateX(-4752px)}97.73%{transform:translateX(-4851px)}97.99%{transform:translateX(-4950px)}98.26%{transform:translateX(-5049px)}98.53%{transform:translateX(-5148px)}98.79%{transform:translateX(-5247px)}99.04%{transform:translateX(-5346px)}99.3%{transform:translateX(-5445px)}99.57%{transform:translateX(-5544px)}99.83%{transform:translateX(-5643px)}to{transform:translateX(-5940px)}}.a{fill:#282d35}.c{fill:#b9c0cb;white-space:pre}.d{fill:#fff}.e{fill:#b9c0cb;font-weight:700;white-space:pre}</style><g font-family="Monaco,Consolas,Menlo,'Bitstream Vera Sans Mono','Powerline Symbols',monospace" font-size="1.67"><defs><symbol id="1"><text y="1.67" class="c">yenwastaken@MacBookPro</text><text x="23.046" y="1.67" class="c">hotpot</text><text x="30.06" y="1.67" class="c">%</text><text x="32.064" y="1.67" class="c">hotpot</text></symbol><symbol id="2"><text y="1.67" class="c">yenwastaken@MacBookPro</text><text x="23.046" y="1.67" class="c">hotpot</text><text x="30.06" y="1.67" class="c">%</text><text x="32.064" y="1.67" class="c">hotpot</text><text x="39.078" y="1.67" class="c">-f</text></symbol><symbol id="3"><text y="1.67" class="c">yenwastaken@MacBookPro</text><text x="23.046" y="1.67" class="c">hotpot</text><text x="30.06" y="1.67" class="c">%</text><text x="32.064" y="1.67" class="c">hotpot</text><text x="39.078" y="1.67" class="c">-f</text><text x="42.084" y="1.67" class="c">/tmp/test.json</text></symbol><symbol id="4"><text y="1.67" class="c">[F]ind</text><text x="7.014" y="1.67" class="c">[A]dd</text><text x="13.026" y="1.67" class="c">[D]elete</text><text x="22.044" y="1.67" class="c">[E]xport</text><text x="31.062" y="1.67" class="c">QR</text><text x="34.068" y="1.67" class="c">[Q]uit</text></symbol><symbol id="5"><text x="1.002" y="1.67" class="c">Demo</text><text x="50.1" y="1.67" class="c">014359</text></symbol><symbol id="6"><path class="d" d="M0 0h57v2.171H0z"/><text y="1.67" class="e">Demo2 362665</text></symbol><symbol id="7"><text x="1.002" y="1.67" class="c">Demo</text><text x="50.1" y="1.67" class="c">855534</text></symbol><symbol id="8"><path class="d" d="M0 0h57v2.171H0z"/><text y="1.67" class="e">Demo2 561813</text></symbol><symbol id="9"><path class="d" d="M0 0h57v2.171H0z"/><text y="1.67" class="e">Demo2 561813</text><text x="58.116" y="1.67" class="c">copied</text></symbol><symbol id="a"><path fill="transparent" d="M0 0h99v34H0z"/></symbol><symbol id="b"><path fill="#6f7683" d="M0 0h1.102v2.171H0z"/></symbol></defs><path class="a" d="M0 0h99v73.814H0z"/><g style="animation-duration:95.071398s;animation-iteration-count:infinite;animation-name:h;animation-timing-function:steps(1,end)"><svg width="6039"><svg><use xlink:href="#a"/><use xlink:href="#b" x="-.004"/></svg><svg x="99"><use xlink:href="#a"/><use xlink:href="#b" x="-.004"/></svg><svg x="198"><use xlink:href="#a"/><use xlink:href="#b" x="31.996"/><text y="1.67" class="c">yenwastaken@MacBookPro</text><text x="23.046" y="1.67" class="c">hotpot</text><text x="30.06" y="1.67" class="c">%</text></svg><svg x="297"><use xlink:href="#a"/><use xlink:href="#b" x="32.996"/><text y="1.67" class="c">yenwastaken@MacBookPro</text><text x="23.046" y="1.67" class="c">hotpot</text><text x="30.06" y="1.67" class="c">%</text><text x="32.064" y="1.67" class="c">h</text></svg><svg x="396"><use xlink:href="#a"/><use xlink:href="#b" x="33.996"/><text y="1.67" class="c">yenwastaken@MacBookPro</text><text x="23.046" y="1.67" class="c">hotpot</text><text x="30.06" y="1.67" class="c">%</text><text x="32.064" y="1.67" class="c">ho</text></svg><svg x="495"><use xlink:href="#a"/><use xlink:href="#b" x="34.996"/><text y="1.67" class="c">yenwastaken@MacBookPro</text><text x="23.046" y="1.67" class="c">hotpot</text><text x="30.06" y="1.67" class="c">%</text><text x="32.064" y="1.67" class="c">hot</text></svg><svg x="594"><use xlink:href="#a"/><use xlink:href="#b" x="35.996"/><text y="1.67" class="c">yenwastaken@MacBookPro</text><text x="23.046" y="1.67" class="c">hotpot</text><text x="30.06" y="1.67" class="c">%</text><text x="32.064" y="1.67" class="c">hotp</text></svg><svg x="693"><use xlink:href="#a"/><use xlink:href="#b" x="36.996"/><text y="1.67" class="c">yenwastaken@MacBookPro</text><text x="23.046" y="1.67" class="c">hotpot</text><text x="30.06" y="1.67" class="c">%</text><text x="32.064" y="1.67" class="c">hotpo</text></svg><svg x="792"><use xlink:href="#a"/><use xlink:href="#b" x="37.996"/><use xlink:href="#1"/></svg><svg x="891"><use xlink:href="#a"/><use xlink:href="#b" x="38.996"/><use xlink:href="#1"/></svg><svg x="990"><use xlink:href="#a"/><use xlink:href="#b" x="39.996"/><text y="1.67" class="c">yenwastaken@MacBookPro</text><text x="23.046" y="1.67" class="c">hotpot</text><text x="30.06" y="1.67" class="c">%</text><text x="32.064" y="1.67" class="c">hotpot</text><text x="39.078" y="1.67" class="c">-</text></svg><svg x="1089"><use xlink:href="#a"/><use xlink:href="#b" x="40.996"/><use xlink:href="#2"/></svg><svg x="1188"><use xlink:href="#a"/><use xlink:href="#b" x="41.996"/><use xlink:href="#2"/></svg><svg x="1287"><use xlink:href="#a"/><use xlink:href="#b" x="42.996"/><text y="1.67" class="c">yenwastaken@MacBookPro</text><text x="23.046" y="1.67" class="c">hotpot</text><text x="30.06" y="1.67" class="c">%</text><text x="32.064" y="1.67" class="c">hotpot</text><text x="39.078" y="1.67" class="c">-f</text><text x="42.084" y="1.67" class="c">/</text></svg><svg x="1386"><use xlink:href="#a"/><use xlink:href="#b" x="43.996"/><text y="1.67" class="c">yenwastaken@MacBookPro</text><text x="23.046" y="1.67" class="c">hotpot</text><text x="30.06" y="1.67" class="c">%</text><text x="32.064" y="1.67" class="c">hotpot</text><text x="39.078" y="1.67" class="c">-f</text><text x="42.084" y="1.67" class="c">/t</text></svg><svg x="1485"><use xlink:href="#a"/><use xlink:href="#b" x="44.996"/><text y="1.67" class="c">yenwastaken@MacBookPro</text><text x="23.046" y="1.67" class="c">hotpot</text><text x="30.06" y="1.67" class="c">%</text><text x="32.064" y="1.67" class="c">hotpot</text><text x="39.078" y="1.67" class="c">-f</text><text x="42.084" y="1.67" class="c">/tm</text></svg><svg x="1584"><use xlink:href="#a"/><use xlink:href="#b" x="45.996"/><text y="1.67" class="c">yenwastaken@MacBookPro</text><text x="23.046" y="1.67" class="c">hotpot</text><text x="30.06" y="1.67" class="c">%</text><text x="32.064" y="1.67" class="c">hotpot</text><text x="39.078" y="1.67" class="c">-f</text><text x="42.084" y="1.67" class="c">/tmp</text></svg><svg x="1683"><use xlink:href="#a"/><use xlink:href="#b" x="46.996"/><text y="1.67" class="c">yenwastaken@MacBookPro</text><text x="23.046" y="1.67" class="c">hotpot</text><text x="30.06" y="1.67" class="c">%</text><text x="32.064" y="1.67" class="c">hotpot</text><text x="39.078" y="1.67" class="c">-f</text><text x="42.084" y="1.67" class="c">/tmp/</text></svg><svg x="1782"><use xlink:href="#a"/><use xlink:href="#b" x="47.996"/><text y="1.67" class="c">yenwastaken@MacBookPro</text><text x="23.046" y="1.67" class="c">hotpot</text><text x="30.06" y="1.67" class="c">%</text><text x="32.064" y="1.67" class="c">hotpot</text><text x="39.078" y="1.67" class="c">-f</text><text x="42.084" y="1.67" class="c">/tmp/t</text></svg><svg x="1881"><use xlink:href="#a"/><use xlink:href="#b" x="48.996"/><text y="1.67" class="c">yenwastaken@MacBookPro</text><text x="23.046" y="1.67" class="c">hotpot</text><text x="30.06" y="1.67" class="c">%</text><text x="32.064" y="1.67" class="c">hotpot</text><text x="39.078" y="1.67" class="c">-f</text><text x="42.084" y="1.67" class="c">/tmp/te</text></svg><svg x="1980"><use xlink:href="#a"/><use xlink:href="#b" x="49.996"/><text y="1.67" class="c">yenwastaken@MacBookPro</text><text x="23.046" y="1.67" class="c">hotpot</text><text x="30.06" y="1.67" class="c">%</text><text x="32.064" y="1.67" class="c">hotpot</text><text x="39.078" y="1.67" class="c">-f</text><text x="42.084" y="1.67" class="c">/tmp/tes</text></svg><svg x="2079"><use xlink:href="#a"/><use xlink:href="#b" x="50.996"/><text y="1.67" class="c">yenwastaken@MacBookPro</text><text x="23.046" y="1.67" class="c">hotpot</text><text x="30.06" y="1.67" class="c">%</text><text x="32.064" y="1.67" class="c">hotpot</text><text x="39.078" y="1.67" class="c">-f</text><text x="42.084" y="1.67" class="c">/tmp/test</text></svg><svg x="2178"><use xlink:href="#a"/><use xlink:href="#b" x="51.996"/><text y="1.67" class="c">yenwastaken@MacBookPro</text><text x="23.046" y="1.67" class="c">hotpot</text><text x="30.06" y="1.67" class="c">%</text><text x="32.064" y="1.67" class="c">hotpot</text><text x="39.078" y="1.67" class="c">-f</text><text x="42.084" y="1.67" class="c">/tmp/test.</text></svg><svg x="2277"><use xlink:href="#a"/><use xlink:href="#b" x="52.996"/><text y="1.67" class="c">yenwastaken@MacBookPro</text><text x="23.046" y="1.67" class="c">hotpot</text><text x="30.06" y="1.67" class="c">%</text><text x="32.064" y="1.67" class="c">hotpot</text><text x="39.078" y="1.67" class="c">-f</text><text x="42.084" y="1.67" class="c">/tmp/test.j</text></svg><svg x="2376"><use xlink:href="#a"/><use xlink:href="#b" x="53.996"/><text y="1.67" class="c">yenwastaken@MacBookPro</text><text x="23.046" y="1.67" class="c">hotpot</text><text x="30.06" y="1.67" class="c">%</text><text x="32.064" y="1.67" class="c">hotpot</text><text x="39.078" y="1.67" class="c">-f</text><text x="42.084" y="1.67" class="c">/tmp/test.js</text></svg><svg x="2475"><use xlink:href="#a"/><use xlink:href="#b" x="54.996"/><text y="1.67" class="c">yenwastaken@MacBookPro</text><text x="23.046" y="1.67" class="c">hotpot</text><text x="30.06" y="1.67" class="c">%</text><text x="32.064" y="1.67" class="c">hotpot</text><text x="39.078" y="1.67" class="c">-f</text><text x="42.084" y="1.67" class="c">/tmp/test.jso</text></svg><svg x="2574"><use xlink:href="#a"/><use xlink:href="#b" x="55.996"/><use xlink:href="#3"/></svg><svg x="2673"><use xlink:href="#a"/><use xlink:href="#b" x="-.004" y="2.146"/><use xlink:href="#3"/></svg><svg x="2772"><use xlink:href="#a"/><use xlink:href="#b" x="56.996" y="10.83"/><use xlink:href="#4"/><text y="6.012" class="c">|████████████████████████▌</text><text x="31.062" y="6.012" class="c">|</text><text x="34.068" y="6.012" class="c">6s</text><use xlink:href="#5" y="8.684"/><use xlink:href="#6" y="10.855"/></svg><svg x="2871"><use xlink:href="#a"/><use xlink:href="#b" x="56.996" y="10.83"/><use xlink:href="#4"/><text y="6.012" class="c">|████████████████████████▊</text><text x="31.062" y="6.012" class="c">|</text><text x="34.068" y="6.012" class="c">6s</text><use xlink:href="#5" y="8.684"/><use xlink:href="#6" y="10.855"/></svg><svg x="2970"><use xlink:href="#a"/><use xlink:href="#b" x="56.996" y="10.83"/><use xlink:href="#4"/><text y="6.012" class="c">|█████████████████████████</text><text x="31.062" y="6.012" class="c">|</text><text x="34.068" y="6.012" class="c">5s</text><use xlink:href="#5" y="8.684"/><use xlink:href="#6" y="10.855"/></svg><svg x="3069"><use xlink:href="#a"/><use xlink:href="#b" x="56.996" y="10.83"/><use xlink:href="#4"/><text y="6.012" class="c">|█████████████████████████▎</text><text x="31.062" y="6.012" class="c">|</text><text x="34.068" y="6.012" class="c">5s</text><use xlink:href="#5" y="8.684"/><use xlink:href="#6" y="10.855"/></svg><svg x="3168"><use xlink:href="#a"/><use xlink:href="#b" x="56.996" y="10.83"/><use xlink:href="#4"/><text y="6.012" class="c">|█████████████████████████▌</text><text x="31.062" y="6.012" class="c">|</text><text x="34.068" y="6.012" class="c">5s</text><use xlink:href="#5" y="8.684"/><use xlink:href="#6" y="10.855"/></svg><svg x="3267"><use xlink:href="#a"/><use xlink:href="#b" x="56.996" y="10.83"/><use xlink:href="#4"/><text y="6.012" class="c">|█████████████████████████▊</text><text x="31.062" y="6.012" class="c">|</text><text x="34.068" y="6.012" class="c">5s</text><use xlink:href="#5" y="8.684"/><use xlink:href="#6" y="10.855"/></svg><svg x="3366"><use xlink:href="#a"/><use xlink:href="#b" x="56.996" y="10.83"/><use xlink:href="#4"/><text y="6.012" class="c">|██████████████████████████</text><text x="31.062" y="6.012" class="c">|</text><text x="34.068" y="6.012" class="c">4s</text><use xlink:href="#5" y="8.684"/><use xlink:href="#6" y="10.855"/></svg><svg x="3465"><use xlink:href="#a"/><use xlink:href="#b" x="56.996" y="10.83"/><use xlink:href="#4"/><text y="6.012" class="c">|██████████████████████████▎</text><text x="31.062" y="6.012" class="c">|</text><text x="34.068" y="6.012" class="c">4s</text><use xlink:href="#5" y="8.684"/><use xlink:href="#6" y="10.855"/></svg><svg x="3564"><use xlink:href="#a"/><use xlink:href="#b" x="56.996" y="10.83"/><use xlink:href="#4"/><text y="6.012" class="c">|██████████████████████████▌</text><text x="31.062" y="6.012" class="c">|</text><text x="34.068" y="6.012" class="c">4s</text><use xlink:href="#5" y="8.684"/><use xlink:href="#6" y="10.855"/></svg><svg x="3663"><use xlink:href="#a"/><use xlink:href="#b" x="56.996" y="10.83"/><use xlink:href="#4"/><text y="6.012" class="c">|██████████████████████████▊</text><text x="31.062" y="6.012" class="c">|</text><text x="34.068" y="6.012" class="c">4s</text><use xlink:href="#5" y="8.684"/><use xlink:href="#6" y="10.855"/></svg><svg x="3762"><use xlink:href="#a"/><use xlink:href="#b" x="56.996" y="10.83"/><use xlink:href="#4"/><text y="6.012" class="c">|███████████████████████████</text><text x="31.062" y="6.012" class="c">|</text><text x="34.068" y="6.012" class="c">3s</text><use xlink:href="#5" y="8.684"/><use xlink:href="#6" y="10.855"/></svg><svg x="3861"><use xlink:href="#a"/><use xlink:href="#b" x="56.996" y="10.83"/><use xlink:href="#4"/><text y="6.012" class="c">|███████████████████████████▎</text><text x="31.062" y="6.012" class="c">|</text><text x="34.068" y="6.012" class="c">3s</text><use xlink:href="#5" y="8.684"/><use xlink:href="#6" y="10.855"/></svg><svg x="3960"><use xlink:href="#a"/><use xlink:href="#b" x="56.996" y="10.83"/><use xlink:href="#4"/><text y="6.012" class="c">|███████████████████████████▌</text><text x="31.062" y="6.012" class="c">|</text><text x="34.068" y="6.012" class="c">3s</text><use xlink:href="#5" y="8.684"/><use xlink:href="#6" y="10.855"/></svg><svg x="4059"><use xlink:href="#a"/><use xlink:href="#b" x="56.996" y="10.83"/><use xlink:href="#4"/><text y="6.012" class="c">|███████████████████████████▊</text><text x="31.062" y="6.012" class="c">|</text><text x="34.068" y="6.012" class="c">3s</text><use xlink:href="#5" y="8.684"/><use xlink:href="#6" y="10.855"/></svg><svg x="4158"><use xlink:href="#a"/><use xlink:href="#b" x="56.996" y="10.83"/><use xlink:href="#4"/><text y="6.012" class="c">|████████████████████████████</text><text x="31.062" y="6.012" class="c">|</text><text x="34.068" y="6.012" class="c">2s</text><use xlink:href="#5" y="8.684"/><use xlink:href="#6" y="10.855"/></svg><svg x="4257"><use xlink:href="#a"/><use xlink:href="#b" x="56.996" y="10.83"/><use xlink:href="#4"/><text y="6.012" class="c">|████████████████████████████▎</text><text x="31.062" y="6.012" class="c">|</text><text x="34.068" y="6.012" class="c">2s</text><use xlink:href="#5" y="8.684"/><use xlink:href="#6" y="10.855"/></svg><svg x="4356"><use xlink:href="#a"/><use xlink:href="#b" x="56.996" y="10.83"/><use xlink:href="#4"/><text y="6.012" class="c">|████████████████████████████▌</text><text x="31.062" y="6.012" class="c">|</text><text x="34.068" y="6.012" class="c">2s</text><use xlink:href="#5" y="8.684"/><use xlink:href="#6" y="10.855"/></svg><svg x="4455"><use xlink:href="#a"/><use xlink:href="#b" x="56.996" y="10.83"/><use xlink:href="#4"/><text y="6.012" class="c">|████████████████████████████▊</text><text x="31.062" y="6.012" class="c">|</text><text x="34.068" y="6.012" class="c">2s</text><use xlink:href="#5" y="8.684"/><use xlink:href="#6" y="10.855"/></svg><svg x="4554"><use xlink:href="#a"/><use xlink:href="#b" x="56.996" y="10.83"/><use xlink:href="#4"/><text y="6.012" class="c">|█████████████████████████████</text><text x="31.062" y="6.012" class="c">|</text><text x="34.068" y="6.012" class="c">1s</text><use xlink:href="#5" y="8.684"/><use xlink:href="#6" y="10.855"/></svg><svg x="4653"><use xlink:href="#a"/><use xlink:href="#b" x="56.996" y="10.83"/><use xlink:href="#4"/><text y="6.012" class="c">|█████████████████████████████▎|</text><text x="34.068" y="6.012" class="c">1s</text><use xlink:href="#5" y="8.684"/><use xlink:href="#6" y="10.855"/></svg><svg x="4752"><use xlink:href="#a"/><use xlink:href="#b" x="56.996" y="10.83"/><use xlink:href="#4"/><text y="6.012" class="c">|█████████████████████████████▌|</text><text x="34.068" y="6.012" class="c">1s</text><use xlink:href="#5" y="8.684"/><use xlink:href="#6" y="10.855"/></svg><svg x="4851"><use xlink:href="#a"/><use xlink:href="#b" x="56.996" y="10.83"/><use xlink:href="#4"/><text y="6.012" class="c">|█████████████████████████████▊|</text><text x="34.068" y="6.012" class="c">1s</text><use xlink:href="#5" y="8.684"/><use xlink:href="#6" y="10.855"/></svg><svg x="4950"><use xlink:href="#a"/><use xlink:href="#b" x="56.996" y="10.83"/><use xlink:href="#4"/><text y="6.012" class="c">|</text><text x="31.062" y="6.012" class="c">|</text><text x="33.066" y="6.012" class="c">30s</text><use xlink:href="#7" y="8.684"/><use xlink:href="#8" y="10.855"/></svg><svg x="5049"><use xlink:href="#a"/><use xlink:href="#b" x="56.996" y="10.83"/><use xlink:href="#4"/><text y="6.012" class="c">|▎</text><text x="31.062" y="6.012" class="c">|</text><text x="33.066" y="6.012" class="c">30s</text><use xlink:href="#7" y="8.684"/><use xlink:href="#8" y="10.855"/></svg><svg x="5148"><use xlink:href="#a"/><use xlink:href="#b" x="56.996" y="10.83"/><use xlink:href="#4"/><text y="6.012" class="c">|▌</text><text x="31.062" y="6.012" class="c">|</text><text x="33.066" y="6.012" class="c">30s</text><use xlink:href="#7" y="8.684"/><use xlink:href="#8" y="10.855"/></svg><svg x="5247"><use xlink:href="#a"/><use xlink:href="#b" x="56.996" y="10.83"/><use xlink:href="#4"/><text y="6.012" class="c">|▊</text><text x="31.062" y="6.012" class="c">|</text><text x="33.066" y="6.012" class="c">30s</text><use xlink:href="#7" y="8.684"/><use xlink:href="#8" y="10.855"/></svg><svg x="5346"><use xlink:href="#a"/><use xlink:href="#b" x="64.996" y="10.83"/><use xlink:href="#4"/><text y="6.012" class="c">|█</text><text x="31.062" y="6.012" class="c">|</text><text x="33.066" y="6.012" class="c">29s</text><use xlink:href="#7" y="8.684"/><use xlink:href="#9" y="10.855"/></svg><svg x="5445"><use xlink:href="#a"/><use xlink:href="#b" x="64.996" y="10.83"/><use xlink:href="#4"/><text y="6.012" class="c">|█▎</text><text x="31.062" y="6.012" class="c">|</text><text x="33.066" y="6.012" class="c">29s</text><use xlink:href="#7" y="8.684"/><use xlink:href="#9" y="10.855"/></svg><svg x="5544"><use xlink:href="#a"/><use xlink:href="#b" x="64.996" y="10.83"/><use xlink:href="#4"/><text y="6.012" class="c">|█▌</text><text x="31.062" y="6.012" class="c">|</text><text x="33.066" y="6.012" class="c">29s</text><use xlink:href="#7" y="8.684"/><use xlink:href="#9" y="10.855"/></svg><svg x="5643"><use xlink:href="#a"/><use xlink:href="#b" x="64.996" y="10.83"/><use xlink:href="#4"/><text y="6.012" class="c">|█▊</text><text x="31.062" y="6.012" class="c">|</text><text x="33.066" y="6.012" class="c">29s</text><use xlink:href="#7" y="8.684"/><use xlink:href="#9" y="10.855"/></svg><svg x="5742"><use xlink:href="#a"/><use xlink:href="#b" x="-.004"/></svg><svg x="5841"><use xlink:href="#a"/><use xlink:href="#b" x="-.004"/></svg><svg x="5940"><use xlink:href="#a"/><use xlink:href="#b" x="-.004"/></svg></svg></g></g></svg></svg>